<svg xmlns="http://www.w3.org/2000/svg" width="360.59" height="61.078" viewBox="0 0 360.59 61.078"><g transform="translate(-249.62 -48.324)"><path d="M291.035,71.395c-.307.3-.547.533-.784.77Q283.037,79.38,275.827,86.6a2.266,2.266,0,0,1-1.235.721,1.817,1.817,0,0,1-2.183-1.771,2.154,2.154,0,0,1,.665-1.576q.943-.95,1.9-1.894a5.238,5.238,0,0,1,.417-.335,2.618,2.618,0,0,0-.25-.388q-2.172-2.187-4.353-4.363a1.877,1.877,0,0,0-.281-.189c-.167.145-.336.277-.487.428q-4.754,4.748-9.5,9.5a1.989,1.989,0,0,1-1.135.592,1.807,1.807,0,0,1-2.137-1.772,2.015,2.015,0,0,1,.5-1.38c.206-.222.408-.449.622-.663q1.75-1.755,3.5-3.5c.143-.142.275-.294.433-.465v-.593c0-5.041.008-10.082-.01-15.123a1.86,1.86,0,0,1,.7-1.591,2.146,2.146,0,0,1,1.37-.423q3.87,0,7.739,0c.213,0,.426-.026.681-.043.017-.222.041-.4.041-.581,0-1.247,0-2.5,0-3.742a1.8,1.8,0,0,1,1.92-1.919q5.186,0,10.369,0a1.836,1.836,0,0,1,1.719,1.024,1.548,1.548,0,0,1,.153.523,4.22,4.22,0,0,1,.021.606q0,5.817,0,11.633c0,.161.018.322.035.587a2.89,2.89,0,0,0,.387-.259c.715-.715,1.422-1.437,2.138-2.152a2.016,2.016,0,0,1,1.577-.655,1.94,1.94,0,0,1,1.345.6q2.6,2.611,5.207,5.224c.187.188.385.366.654.622-.03-.509-.443-.707-.537-1.071h5.121c0,.658.01,1.276.012,1.894s0,1.247,0,1.871v1.839a45.68,45.68,0,0,0,3.708,3.669c.221-.1.17-.3.174-.478.027-1.295.073-2.59.019-3.887a19.452,19.452,0,0,0-.368-2.948c-.152-.773-.3-1.546-.479-2.313a11.022,11.022,0,0,0-.419-1.391c-.342-.907-.694-1.811-1.081-2.7a24.84,24.84,0,0,0-2.469-4.321,27.055,27.055,0,0,0-4.66-5.087,26.464,26.464,0,0,0-6.378-4.008,20.727,20.727,0,0,0-3.736-1.313c-.749-.175-1.486-.408-2.241-.55s-1.533-.2-2.3-.3a24.3,24.3,0,0,0-4.592-.075,19.537,19.537,0,0,0-2.895.393c-.951.19-1.885.469-2.818.736a25.5,25.5,0,0,0-8.057,4.034,26.522,26.522,0,0,0-4.669,4.376,25.288,25.288,0,0,0-3.651,5.656c-.51,1.108-.979,2.24-1.376,3.391a27.228,27.228,0,0,0-.672,2.678c-.127.538-.249,1.078-.337,1.623-.072.447-.087.9-.135,1.355a21.188,21.188,0,0,0,.038,5.139c.094.681.15,1.368.259,2.047.079.5.207.983.33,1.471.142.567.309,1.129.454,1.7a8.089,8.089,0,0,0,1.542,3.023,12.009,12.009,0,0,0,4.809,3.569,12.23,12.23,0,0,0,6.166.843,8.965,8.965,0,0,0,2.048-.487,24,24,0,0,1,3.229-.919c1.008-.177,2.014-.366,3.021-.55a.673.673,0,0,1,.1-.014c1.227-.072,2.452-.162,3.679-.207.892-.032,1.787-.011,2.68,0,1.482.018,2.966.1,4.446.054a22.1,22.1,0,0,0,2.966-.221,25.416,25.416,0,0,0,2.988-.672c.366-.106.721-.569,1.11-.411.9.366.474,1.747,0,2.572a8.772,8.772,0,0,1-1.955,2.294,10.631,10.631,0,0,1-3.182,1.9c-.562.209-1.15.347-1.728.51-.483.137-.975.247-1.452.4a1.009,1.009,0,0,0-.691.545c.107.378.226.795.343,1.211a1.428,1.428,0,0,0,.8.859,4.781,4.781,0,0,0,3.48.326c.39-.1.785-.175,1.179-.256a19.713,19.713,0,0,0,6.964-2.9,17.962,17.962,0,0,0,4.1-3.707,21.967,21.967,0,0,0,1.794-2.495,3,3,0,0,1,1.64-1.353,2.123,2.123,0,0,1,1.761.076,1.508,1.508,0,0,1,.789,1.318,3.6,3.6,0,0,1-.537,2.011,29.053,29.053,0,0,1-3.281,4.707,30.547,30.547,0,0,1-11.379,8.3,31.629,31.629,0,0,1-3.125,1.088,23.662,23.662,0,0,1-2.915.751,22.7,22.7,0,0,1-4.105.468c-.5-.006-1.011.1-1.511.066a28.232,28.232,0,0,1-3.775-.256c-.608-.12-1.232-.156-1.846-.25-.38-.058-.757-.143-1.131-.236-.748-.187-1.5-.352-2.235-.59-1.033-.337-2.058-.7-3.066-1.107a28.321,28.321,0,0,1-6.676-3.791c-.935-.713-1.822-1.5-2.69-2.289a26.876,26.876,0,0,1-4.11-4.837,27.15,27.15,0,0,1-2.86-5.356c-.411-1.06-.8-2.131-1.143-3.215-.214-.684-.32-1.4-.47-2.106-.092-.426-.189-.852-.261-1.282-.118-.7-.251-1.391-.316-2.093-.091-.989-.153-1.982-.174-2.974-.015-.705.056-1.413.093-2.119.011-.2.048-.4.052-.6a16.713,16.713,0,0,1,.37-2.845c.1-.493.158-.993.266-1.484.122-.555.252-1.112.427-1.653.292-.907.609-1.807.941-2.7a27.1,27.1,0,0,1,2.129-4.378,30.669,30.669,0,0,1,17.013-13.521,26.278,26.278,0,0,1,2.677-.677c1-.211,2.013-.366,3.02-.544a1.775,1.775,0,0,1,.25-.037c1.312-.049,2.626-.152,3.936-.126a18.93,18.93,0,0,1,3.416.273c.592.12,1.2.142,1.794.261.7.142,1.4.322,2.1.517.708.2,1.408.423,2.107.653a27.807,27.807,0,0,1,5.283,2.435,30.6,30.6,0,0,1,9.592,8.807,31.031,31.031,0,0,1,2.859,4.964,24.452,24.452,0,0,1,1.306,3.478c.171.595.376,1.181.533,1.779.118.453.187.919.269,1.38.088.5.183.991.242,1.49.127,1.068.265,2.136.337,3.208.054.805.027,1.618,0,2.427-.013.486-.085.97-.131,1.455-.011.118-.03.235-.034.352a15.074,15.074,0,0,1-.388,2.74c-.1.441-.143.9-.253,1.332a1.84,1.84,0,0,1-1.348,1.372,2.029,2.029,0,0,1-2.152-.6q-7.417-7.441-14.856-14.862C291.348,71.662,291.209,71.55,291.035,71.395Zm-7.713,2.256c.1-2.106.05-13.793-.072-14.283a3.784,3.784,0,0,0-.463-.052q-2.881-.006-5.764,0a4.016,4.016,0,0,0-.5.07V77.355c.525.5,1.005,1.079,1.535,1.5Zm-17.292-7.97c-.009,3.305,0,6.6-.007,9.88.18.128.285.045.4-.075q1.2-1.227,2.412-2.445a6.34,6.34,0,0,1,.494-.43,1.974,1.974,0,0,1,2.615.173c.166.166.319.347.495.5a1.634,1.634,0,0,0,.381.165V70.815c0-.859.011-1.718,0-2.577a23.3,23.3,0,0,0-.045-2.539A64.1,64.1,0,0,0,266.03,65.681Z" fill="#eb6460"/><path d="M294.417,80.357v2.8h-2.75v-2.8Z" fill="#eb6460"/><path d="M287.727,83.153c-.055-.937-.035-1.846-.013-2.793h2.79c.054.936.035,1.845.012,2.793Z" fill="#eb6460"/><path d="M287.718,86.962v-2.72c.939-.008,1.851,0,2.792,0v2.718A10.522,10.522,0,0,1,287.718,86.962Z" fill="#eb6460"/><path d="M291.656,86.992V84.276h2.719a13.191,13.191,0,0,1,.026,2.694A12.9,12.9,0,0,1,291.656,86.992Z" fill="#eb6460"/><path d="M39.535,0h8.088V-15.51c0-7.136-4.234-11.323-10.8-11.323a10.678,10.678,0,0,0-8.944,4.948,9.916,9.916,0,0,0-9.039-4.948,9.365,9.365,0,0,0-7.755,3.616v-3.33H2.95V0h8.135V-14.415c0-3.473,2-5.376,5.091-5.376s5.091,1.9,5.091,5.376V0h8.088V-14.415c0-3.473,2-5.376,5.091-5.376s5.091,1.9,5.091,5.376Zm13.8,0h8.135V-26.547H53.332Zm4.091-29.307a4.479,4.479,0,0,0,4.805-4.377,4.487,4.487,0,0,0-4.805-4.425c-2.9,0-4.853,1.951-4.853,4.425C52.571-31.257,54.522-29.307,57.424-29.307ZM75.5-22.789V-35.206H67.367V0H75.5V-3.711A9.33,9.33,0,0,0,83.685.381c6.518,0,11.7-5.328,11.7-13.7s-5.138-13.607-11.7-13.607A9.372,9.372,0,0,0,75.5-22.789Zm11.608,9.468c0,4.234-2.759,6.613-5.852,6.613-3.045,0-5.8-2.331-5.8-6.565s2.759-6.565,5.8-6.565C84.352-19.839,87.111-17.555,87.111-13.321Zm38.774-13.226H117.75v14.415c0,3.616-2,5.614-5.138,5.614-3.045,0-5.091-2-5.091-5.614V-26.547H99.433v15.51c0,7.089,4.139,11.323,10.276,11.323a9.673,9.673,0,0,0,8.04-3.9V0h8.135ZM131.737,0h8.135V-26.547h-8.135Zm4.091-29.307a4.479,4.479,0,0,0,4.805-4.377,4.487,4.487,0,0,0-4.805-4.425c-2.9,0-4.853,1.951-4.853,4.425C130.976-31.257,132.926-29.307,135.828-29.307ZM145.772,0h8.135V-35.206h-8.135Zm12.417-13.321c0,8.373,5.186,13.7,11.7,13.7a9.182,9.182,0,0,0,8.183-4.187V0h8.135V-35.206h-8.135v12.322a9.745,9.745,0,0,0-8.183-4.044C163.375-26.928,158.189-21.694,158.189-13.321Zm19.887.048c0,4.234-2.712,6.565-5.8,6.565-3.045,0-5.8-2.379-5.8-6.613s2.759-6.518,5.8-6.518C175.364-19.839,178.075-17.508,178.075-13.274ZM192.11,0h8.135V-26.547H192.11ZM196.2-29.307a4.479,4.479,0,0,0,4.805-4.377,4.487,4.487,0,0,0-4.805-4.425c-2.9,0-4.853,1.951-4.853,4.425C191.349-31.257,193.3-29.307,196.2-29.307ZM224.462,0h8.088V-15.51c0-7.136-4.092-11.323-10.229-11.323a9.734,9.734,0,0,0-8.04,3.806v-3.521h-8.135V0h8.135V-14.415c0-3.616,2-5.614,5.091-5.614s5.091,2,5.091,5.614Zm12.132-13.321c0,8.373,5.186,13.7,11.7,13.7a9.389,9.389,0,0,0,8.183-4.187V-.048c0,4.472-2.426,6.09-5.519,6.09-2.807,0-4.805-1.285-5.328-3.283h-8.04c.714,6.328,5.852,10.324,13.749,10.324,9.182,0,13.274-6.042,13.274-13.131v-26.5H256.48v3.758c-1.427-2.379-4.282-4.139-8.183-4.139C241.779-26.928,236.593-21.694,236.593-13.321Zm19.887.048c0,4.234-2.712,6.565-5.8,6.565-3.045,0-5.8-2.379-5.8-6.613s2.759-6.518,5.8-6.518C253.768-19.839,256.48-17.508,256.48-13.274Z" transform="translate(319.791 95.439)" fill="#333"/><path d="M3.088,15.944a1.16,1.16,0,1,0-1.152,1.168A1.151,1.151,0,0,0,3.088,15.944Zm5.68-6.368A2.289,2.289,0,0,1,11.232,11.8H6.352A2.4,2.4,0,0,1,8.768,9.576Zm4.128,4.8H10.928a2.134,2.134,0,0,1-2.08,1.232,2.425,2.425,0,0,1-2.512-2.336h6.736a5.627,5.627,0,0,0,.064-.9A4.111,4.111,0,0,0,8.848,8.04a4.222,4.222,0,0,0-4.4,4.544,4.277,4.277,0,0,0,4.4,4.56A4.028,4.028,0,0,0,12.9,14.376ZM22.912,8.184H21.088V13.1a2.137,2.137,0,0,1-2.224,2.448c-1.328,0-2.208-.832-2.208-2.448V8.184H14.848v5.184a3.445,3.445,0,0,0,3.632,3.76,3.282,3.282,0,0,0,2.608-1.184V17h1.824Z" transform="translate(587.298 78.144)" fill="#333"/></g></svg>